# xmcd CD database file
#
# Track frame offsets:
#	150
#	21765
#	37320
#	52935
#	63772
#	75237
#	89947
#	108467
#	125092
#	125602
#	144505
#	160987
#	178067
#	208427
#	228252
#	230272
#
# Disc length: 3400 seconds
#
# Revision: 3
# Processed by: cddbd v1.5.2PL0 Copyright (c) Steve Scherf et al.
# Submitted via: CDex 1.51
#
DISCID=e30d4610
DTITLE=Doug Sahm - The Last Real Texas Blues Band Featuring Doug Sahm
DYEAR=1994
DGENRE=Blues
TTITLE0=Reconsider Baby
TTITLE1=My Dearest Darling
TTITLE2=Bad Boy
TTITLE3=My Girl Josephine
TTITLE4=I'm A Fool To Care
TTITLE5=Something To Remember You By
TTITLE6=Home At Last
TTITLE7=Do Something For Me
TTITLE8=Intro by Clifford Antone
TTITLE9=Blessed Are These Tears
TTITLE10=Loan A Helping Hand
TTITLE11=When I Fall In Love
TTITLE12=Honky Tonk
TTITLE13=Tell Me The Truth
TTITLE14=Round of Drinks
TTITLE15=T-Bone Shuffle
EXTD=YEAR: 1994
EXTT0=
EXTT1=
EXTT2=
EXTT3=
EXTT4=
EXTT5=
EXTT6=
EXTT7=
EXTT8=
EXTT9=
EXTT10=
EXTT11=
EXTT12=
EXTT13=
EXTT14=
EXTT15=
PLAYORDER=
